<?xml version="1.0" encoding="UTF-8" ?>
<!DOCTYPE svg PUBLIC "-//W3C//DTD SVG 1.1//EN" "http://www.w3.org/Graphics/SVG/1.1/DTD/svg11.dtd">
<svg width="400pt" height="400pt" viewBox="0 0 400 400" version="1.1" xmlns="http://www.w3.org/2000/svg">
<g id="#000000ff">
<path fill="#000000" opacity="1.00" d=" M 0.00 0.00 L 400.00 0.00 L 400.00 400.00 L 0.00 400.00 L 0.00 0.00 M 187.17 68.87 C 185.59 70.60 183.39 72.37 183.92 75.03 C 183.63 79.22 188.75 82.50 192.37 80.24 C 194.85 79.19 195.52 76.44 196.28 74.14 C 195.48 72.82 194.78 71.44 193.79 70.26 C 192.07 68.40 189.40 69.06 187.17 68.87 M 206.60 71.53 C 203.46 74.26 205.20 80.01 209.14 80.88 C 210.85 81.30 212.48 80.39 214.10 79.96 C 214.68 85.32 214.71 90.75 214.08 96.10 C 208.70 95.72 203.36 94.99 197.96 95.06 C 197.81 91.51 197.80 87.95 197.73 84.40 C 197.29 84.51 196.41 84.71 195.97 84.81 C 196.00 88.24 196.00 91.67 196.00 95.09 C 194.07 95.45 192.14 95.80 190.22 96.16 C 190.45 96.84 190.91 98.19 191.14 98.87 C 191.89 100.86 194.31 100.11 195.93 100.34 C 196.08 109.22 196.03 118.11 196.02 126.99 C 195.92 128.64 196.39 130.23 197.02 131.74 C 197.46 130.22 197.82 128.65 197.80 127.06 C 197.91 118.06 197.54 109.05 198.02 100.06 C 203.45 99.86 208.84 100.58 214.24 101.05 C 214.77 110.05 214.30 119.08 214.48 128.10 C 214.44 129.39 214.90 130.48 215.86 131.38 C 216.23 112.91 215.89 94.42 216.04 75.94 C 216.73 71.07 209.86 67.79 206.60 71.53 M 183.90 98.05 C 184.08 109.03 183.59 120.03 184.15 131.00 C 185.51 128.55 184.91 125.67 185.02 122.99 C 184.84 112.00 185.30 101.00 184.77 90.02 C 183.45 92.50 183.99 95.36 183.90 98.05 M 222.03 97.90 C 221.99 99.48 221.99 101.07 222.04 102.65 C 240.21 108.00 257.53 117.57 270.20 131.82 C 278.87 139.92 284.85 150.37 289.80 161.03 C 291.33 160.46 292.86 159.89 294.40 159.32 C 293.22 155.88 291.57 152.63 289.63 149.56 C 285.76 143.43 282.52 136.80 277.33 131.63 C 271.27 125.34 265.45 118.59 257.90 114.04 C 247.18 106.39 235.12 100.11 222.03 97.90 M 167.98 100.19 C 168.50 101.88 169.07 103.54 169.64 105.21 C 172.19 104.36 174.76 103.54 177.34 102.76 C 176.91 101.27 176.48 99.57 174.95 98.83 C 172.56 98.85 170.29 99.69 167.98 100.19 M 152.30 107.09 C 146.11 110.80 140.05 114.77 134.32 119.16 C 127.22 126.15 119.58 132.89 114.44 141.55 C 112.09 145.23 109.38 148.71 107.62 152.73 C 109.05 153.46 110.47 154.19 111.90 154.92 C 117.24 146.45 122.35 137.63 129.98 130.96 C 139.67 119.85 152.75 112.53 165.94 106.36 C 165.44 104.86 164.96 103.35 164.49 101.84 C 160.08 102.63 156.17 104.96 152.30 107.09 M 140.81 141.99 C 141.68 141.99 143.41 141.98 144.28 141.97 C 145.08 140.06 145.02 136.67 142.12 137.05 C 139.72 137.70 140.10 140.21 140.81 141.99 M 258.48 137.60 C 256.88 138.58 257.16 141.43 259.11 141.86 C 260.72 142.50 262.77 141.00 262.38 139.27 C 262.22 137.51 259.84 136.28 258.48 137.60 M 168.23 150.41 C 152.38 156.17 136.82 162.76 120.82 168.08 C 136.50 173.74 151.92 180.12 167.82 185.17 C 178.07 188.74 188.14 192.81 198.41 196.33 C 200.43 197.20 202.43 195.88 204.35 195.32 C 214.33 191.81 224.17 187.92 234.14 184.41 C 240.72 182.44 247.20 180.16 253.58 177.63 C 248.05 174.56 241.60 174.13 235.67 172.22 C 226.07 169.20 216.28 166.82 206.75 163.62 C 205.61 161.17 203.38 159.82 200.88 159.10 C 198.90 160.22 196.17 161.27 196.18 163.99 C 195.59 166.74 197.57 169.24 200.07 170.11 C 202.56 170.77 204.67 169.02 206.66 167.83 C 215.67 171.69 224.71 175.50 233.75 179.31 C 231.80 180.09 229.70 181.60 227.54 180.63 C 221.07 178.29 215.01 174.95 208.55 172.57 C 205.52 171.19 202.64 174.90 199.59 173.53 C 196.07 172.46 193.09 169.46 192.54 165.76 C 191.81 160.13 197.78 154.81 203.29 156.36 C 206.16 156.91 207.98 159.33 209.49 161.62 C 223.27 165.79 237.44 168.46 251.23 172.61 C 256.39 174.31 259.19 179.86 259.08 185.05 C 259.16 195.38 259.24 205.71 259.41 216.03 C 257.82 217.09 255.80 218.07 255.35 220.13 C 254.63 222.43 255.80 224.63 256.67 226.69 C 255.81 227.65 254.17 228.38 254.46 229.94 C 254.31 235.30 254.78 240.66 254.64 246.02 C 254.76 249.62 254.08 253.41 255.65 256.79 C 256.36 256.46 257.78 255.79 258.49 255.45 C 260.35 257.18 262.91 257.21 264.85 255.61 C 265.75 255.80 267.53 256.18 268.42 256.37 C 268.42 247.55 268.43 238.73 268.30 229.92 C 268.60 228.14 266.48 227.76 265.43 226.95 C 267.26 224.22 266.87 220.91 266.36 217.85 C 265.43 217.32 264.50 216.78 263.58 216.24 C 263.60 205.16 263.24 194.08 263.08 183.00 C 263.05 180.16 262.01 177.52 260.71 175.05 C 266.75 172.68 272.84 170.46 278.92 168.19 C 263.16 162.87 247.78 156.46 232.19 150.65 C 221.21 147.44 210.91 142.31 199.99 138.95 C 189.20 142.16 179.06 147.30 168.23 150.41 M 104.87 166.79 C 101.71 176.22 99.18 186.13 100.10 196.17 C 99.94 198.35 100.83 201.27 98.86 202.83 C 92.35 203.15 85.82 202.80 79.30 202.95 C 77.80 200.71 76.10 197.70 72.97 197.87 C 70.62 197.45 68.78 199.07 66.97 200.26 C 65.99 203.72 66.89 208.55 71.04 209.28 C 74.55 210.53 77.23 207.42 78.89 204.78 C 85.87 204.15 93.03 204.41 100.06 204.74 C 99.46 212.16 101.18 219.46 103.18 226.55 C 103.75 225.55 103.90 224.50 103.62 223.41 C 102.37 217.13 100.49 210.85 101.06 204.38 C 110.71 204.56 120.36 204.41 130.00 204.49 C 131.54 204.30 133.71 204.88 134.49 203.04 C 123.33 202.74 112.17 203.12 101.01 202.84 C 100.72 199.38 100.78 195.90 101.00 192.43 C 115.52 192.20 130.07 192.93 144.57 191.92 C 142.29 190.47 139.53 190.99 136.99 190.91 C 124.98 190.92 112.97 191.02 100.97 190.86 C 101.73 181.14 104.46 171.68 108.00 162.63 C 105.90 162.93 105.58 165.17 104.87 166.79 M 291.71 165.20 C 292.17 166.82 292.67 168.43 293.15 170.05 C 294.99 170.33 296.83 170.59 298.68 170.85 C 297.97 168.41 297.10 166.03 296.12 163.69 C 294.65 164.19 293.17 164.69 291.71 165.20 M 274.23 184.78 C 275.93 186.65 277.87 184.35 278.97 183.06 C 277.79 182.25 276.76 180.55 275.10 181.12 C 273.50 181.16 272.60 184.04 274.23 184.78 M 296.05 180.54 C 296.63 183.79 297.07 187.06 297.41 190.35 C 288.28 190.48 279.16 190.39 270.04 190.39 C 270.03 190.69 270.02 191.27 270.01 191.57 C 277.68 191.42 285.34 191.54 293.01 191.47 C 294.50 191.65 296.28 191.15 297.54 192.17 C 298.08 195.50 297.87 198.88 297.89 202.23 C 289.40 202.60 280.87 201.99 272.39 202.45 C 272.16 202.80 271.70 203.50 271.47 203.85 C 280.28 204.46 289.13 202.82 297.92 204.11 C 297.52 207.47 297.16 210.83 296.74 214.18 C 289.71 214.42 282.67 214.02 275.64 214.44 C 276.62 215.90 278.44 215.54 279.95 215.61 C 285.53 215.55 291.11 215.53 296.69 215.62 C 294.41 229.96 288.65 243.58 280.66 255.65 C 277.33 260.54 273.52 265.09 269.13 269.06 C 260.70 278.61 249.66 285.53 238.07 290.61 C 238.84 292.03 239.64 293.43 240.42 294.85 C 249.05 291.20 256.76 285.73 264.39 280.38 C 272.13 273.11 280.19 265.78 285.43 256.40 C 293.46 244.17 299.45 230.23 300.85 215.55 C 305.52 215.66 310.23 215.27 314.90 215.76 C 316.62 216.80 317.08 219.28 319.08 219.99 C 322.79 221.61 327.57 218.05 327.05 214.04 C 326.79 210.40 322.56 207.45 319.11 208.99 C 316.71 209.65 316.65 212.68 314.87 214.01 C 310.32 214.56 305.70 214.31 301.15 213.94 C 301.45 210.64 301.83 207.34 302.22 204.05 C 313.25 203.70 324.29 204.11 335.33 204.06 C 336.39 206.82 338.74 209.50 342.02 208.85 C 347.14 208.71 349.27 200.71 344.58 198.34 C 341.19 195.76 336.42 198.20 335.47 202.07 C 324.35 202.45 313.22 202.27 302.09 202.22 C 302.08 198.70 302.06 195.18 302.03 191.66 C 309.51 191.41 316.99 191.47 324.46 191.75 C 325.26 193.20 325.83 194.87 327.13 195.97 C 329.44 197.75 333.32 197.52 334.88 194.84 C 337.66 191.63 335.70 185.90 331.47 185.17 C 328.16 184.41 325.64 187.38 324.55 190.16 C 316.97 190.50 309.38 190.39 301.80 190.23 C 301.51 187.27 301.40 184.24 300.42 181.41 C 299.14 180.60 297.49 180.84 296.05 180.54 M 80.36 190.81 C 75.43 190.85 70.43 191.34 65.54 190.64 C 64.83 189.49 64.30 188.25 63.73 187.03 C 61.44 185.80 58.64 184.41 56.23 186.23 C 51.85 188.49 52.47 195.78 57.16 197.30 C 60.83 198.97 64.46 195.89 65.60 192.51 C 70.34 192.56 75.09 192.23 79.82 192.60 C 81.44 194.36 82.37 197.16 85.03 197.62 C 89.29 198.35 93.54 193.49 91.66 189.37 C 90.78 186.85 88.13 185.98 85.94 184.98 C 83.10 185.82 81.03 187.91 80.36 190.81 M 149.94 206.71 C 157.06 208.86 164.38 210.18 171.69 211.39 C 171.89 204.88 173.44 198.54 175.85 192.51 C 168.81 189.82 161.76 187.15 154.70 184.50 C 151.09 191.31 149.44 199.02 149.94 206.71 M 223.99 192.62 C 226.19 198.65 227.49 204.93 228.16 211.32 C 235.51 210.15 242.84 208.76 249.93 206.48 C 250.51 198.92 248.49 191.48 245.39 184.64 C 238.24 187.25 231.14 189.99 223.99 192.62 M 180.20 194.02 C 178.04 199.84 176.47 205.92 176.34 212.17 C 183.52 212.66 190.69 213.16 197.87 213.53 C 197.89 209.14 197.88 204.76 197.93 200.38 C 191.91 198.56 186.07 196.24 180.20 194.02 M 202.08 200.43 C 202.11 204.79 202.13 209.15 202.15 213.51 C 209.07 213.08 216.00 212.71 222.91 212.11 C 223.11 205.93 221.74 199.87 219.45 194.15 C 213.77 196.52 207.97 198.63 202.08 200.43 M 84.28 210.08 C 82.31 211.37 81.17 213.70 80.95 216.01 C 81.63 218.72 83.78 221.79 86.98 221.13 C 90.89 221.43 94.25 216.46 92.05 213.08 C 90.86 209.96 87.17 209.35 84.28 210.08 M 109.87 211.83 C 106.86 215.13 109.26 221.49 113.98 221.14 C 117.24 221.85 118.90 218.67 120.53 216.51 C 127.38 216.46 134.23 216.50 141.09 216.48 L 141.05 214.96 C 134.22 214.92 127.38 214.98 120.55 214.90 C 119.42 213.15 118.21 211.45 116.92 209.82 C 114.50 210.00 111.39 209.40 109.87 211.83 M 149.92 211.63 C 150.96 226.84 160.92 240.47 173.72 248.23 C 180.66 251.48 187.95 254.40 195.68 254.95 C 192.24 252.54 188.62 250.32 185.57 247.41 C 177.87 238.85 172.12 228.08 171.72 216.37 C 164.42 214.95 157.12 213.54 149.92 211.63 M 228.02 216.41 C 227.18 221.41 226.48 226.51 224.46 231.20 C 222.42 235.94 219.56 240.28 216.50 244.42 C 213.19 248.92 208.35 251.86 203.81 254.96 C 211.22 254.59 218.16 251.75 224.84 248.73 C 231.89 245.22 237.12 239.11 241.77 232.92 C 246.32 226.60 248.66 219.03 250.12 211.46 C 242.87 213.63 235.41 214.88 228.02 216.41 M 176.34 216.60 C 177.76 230.48 185.26 244.21 197.75 251.00 C 197.95 240.08 197.71 229.15 197.88 218.22 C 190.70 217.62 183.51 217.28 176.34 216.60 M 202.17 217.91 C 202.13 228.87 202.19 239.82 202.13 250.77 C 214.23 243.86 221.88 230.38 222.95 216.64 C 216.02 217.04 209.11 217.90 202.17 217.91 M 103.66 237.25 C 106.12 244.82 110.40 251.60 114.79 258.17 C 119.31 266.02 126.03 272.26 132.52 278.46 C 136.78 282.76 142.17 285.61 147.17 288.94 C 154.71 294.08 163.35 297.28 171.97 300.11 C 172.39 298.51 172.84 296.92 173.24 295.32 C 156.78 290.23 141.13 281.33 129.50 268.47 C 119.80 259.48 113.53 247.58 108.04 235.73 C 106.58 236.23 105.12 236.74 103.66 237.25 M 138.32 242.24 C 138.41 243.63 138.51 245.01 138.62 246.40 C 139.90 246.43 141.19 246.46 142.48 246.48 C 142.59 245.07 142.68 243.66 142.78 242.25 C 141.29 242.24 139.80 242.23 138.32 242.24 M 238.32 264.73 C 239.74 265.96 241.31 264.97 242.78 264.44 C 242.58 262.83 242.29 260.20 240.03 260.58 C 237.71 260.37 238.05 263.23 238.32 264.73 M 186.56 261.57 C 186.05 273.73 186.55 285.92 186.24 298.09 C 185.41 298.08 183.74 298.06 182.91 298.05 C 182.65 299.35 182.40 300.65 182.15 301.96 C 183.55 302.19 184.95 302.42 186.35 302.66 C 186.27 306.91 186.32 311.17 186.20 315.43 C 181.03 316.49 180.51 323.81 184.71 326.39 C 186.86 327.01 189.54 326.90 191.16 325.14 C 193.15 323.41 193.22 320.13 192.00 317.94 C 190.71 316.79 189.11 316.04 187.75 314.97 C 187.31 310.89 187.61 306.77 187.61 302.68 C 191.28 302.74 194.96 302.89 198.62 303.22 C 198.63 303.82 198.66 305.04 198.68 305.65 C 196.14 307.19 193.54 309.51 194.34 312.84 C 194.34 315.89 197.41 316.92 199.80 317.69 C 201.78 316.82 204.51 316.43 205.06 313.92 C 206.78 310.30 203.59 306.42 199.99 305.81 C 200.02 305.10 200.08 303.69 200.11 302.99 C 203.70 302.89 207.29 302.75 210.88 302.64 C 210.91 306.91 210.98 311.19 210.77 315.46 C 209.33 316.32 207.35 316.74 206.59 318.40 C 205.68 320.89 205.90 324.19 208.34 325.75 C 210.91 327.71 214.30 326.45 216.58 324.66 C 216.89 322.07 216.90 319.43 216.20 316.90 C 214.90 316.49 213.60 316.07 212.31 315.65 C 212.28 311.28 212.30 306.92 212.34 302.55 C 216.58 301.76 220.79 300.87 225.04 300.11 C 224.78 298.72 224.53 297.33 224.28 295.95 C 220.26 296.45 216.34 297.45 212.33 297.99 C 212.09 285.83 212.44 273.66 212.04 261.52 C 211.82 261.88 211.38 262.61 211.16 262.98 C 210.91 274.74 211.43 286.53 210.87 298.29 C 207.22 298.57 203.55 298.71 199.89 298.74 C 199.72 287.16 200.03 275.57 199.66 264.00 C 199.43 264.49 198.98 265.48 198.75 265.98 C 198.55 276.92 198.77 287.88 198.66 298.83 C 194.94 298.72 191.22 298.60 187.52 298.29 C 187.42 287.19 187.36 276.09 187.47 265.00 C 187.58 263.75 187.30 262.58 186.56 261.57 M 162.57 267.45 C 162.58 268.45 162.59 269.44 162.60 270.44 C 163.75 270.84 164.89 271.78 166.18 271.33 C 167.13 269.88 166.49 268.03 166.55 266.42 C 165.22 266.75 163.89 267.10 162.57 267.45 M 216.37 273.22 C 216.43 274.67 216.50 276.13 216.58 277.58 C 217.87 277.52 219.17 277.45 220.47 277.38 C 220.46 276.15 220.50 274.91 220.36 273.69 C 219.25 272.79 217.67 273.39 216.37 273.22 M 228.91 294.41 C 229.28 295.92 229.65 297.42 230.04 298.93 C 232.09 298.23 234.13 297.49 236.17 296.73 C 235.48 295.29 234.79 293.86 234.10 292.44 C 232.37 293.09 230.64 293.76 228.91 294.41 Z" />
<path fill="#000000" opacity="1.00" d=" M 185.54 149.69 C 190.34 148.10 195.07 146.25 199.79 144.42 C 211.54 149.16 223.71 152.76 235.42 157.64 C 244.75 161.08 253.98 164.80 263.38 168.07 C 261.03 169.09 258.60 169.91 256.12 170.53 C 254.22 169.03 252.25 167.55 249.91 166.84 C 240.90 163.91 232.19 160.15 223.28 156.91 C 215.50 154.12 207.99 150.46 199.87 148.70 C 190.17 150.91 181.24 155.48 171.82 158.58 C 164.02 161.67 156.18 164.65 148.27 167.42 L 147.81 168.11 C 155.39 171.69 163.63 173.69 171.28 177.16 C 170.58 178.33 170.39 181.29 168.34 179.94 C 157.84 175.67 146.92 172.39 136.63 167.66 C 153.19 162.41 168.98 154.97 185.54 149.69 Z" />
<path fill="#000000" opacity="1.00" d=" M 174.15 181.98 C 174.78 180.80 175.40 179.63 176.03 178.45 C 177.18 178.97 178.34 179.49 179.49 180.01 C 179.02 181.07 178.55 182.14 178.09 183.22 C 176.77 182.80 175.47 182.39 174.15 181.98 Z" />
<path fill="#000000" opacity="1.00" d=" M 183.07 184.57 C 183.35 183.55 183.63 182.54 183.92 181.52 C 185.09 181.93 186.26 182.34 187.43 182.75 C 187.16 183.51 186.62 185.04 186.35 185.81 C 185.25 185.39 184.16 184.98 183.07 184.57 Z" />
<path fill="#000000" opacity="1.00" d=" M 192.39 183.92 C 193.66 184.51 194.93 185.11 196.20 185.72 C 195.58 186.76 194.96 187.81 194.35 188.86 C 193.14 188.48 191.93 188.10 190.72 187.72 C 191.27 186.45 191.83 185.18 192.39 183.92 Z" />
</g>
<g id="#3a7f99ff">
<path fill="#3a7f99" opacity="1.00" d=" M 187.17 68.87 C 189.40 69.06 192.07 68.40 193.79 70.26 C 194.78 71.44 195.48 72.82 196.28 74.14 C 195.52 76.44 194.85 79.19 192.37 80.24 C 188.75 82.50 183.63 79.22 183.92 75.03 C 183.39 72.37 185.59 70.60 187.17 68.87 Z" />
<path fill="#3a7f99" opacity="1.00" d=" M 206.60 71.53 C 209.86 67.79 216.73 71.07 216.04 75.94 C 215.89 94.42 216.23 112.91 215.86 131.38 C 214.90 130.48 214.44 129.39 214.48 128.10 C 214.30 119.08 214.77 110.05 214.24 101.05 C 208.84 100.58 203.45 99.86 198.02 100.06 C 197.54 109.05 197.91 118.06 197.80 127.06 C 197.82 128.65 197.46 130.22 197.02 131.74 C 196.39 130.23 195.92 128.64 196.02 126.99 C 196.03 118.11 196.08 109.22 195.93 100.34 C 194.31 100.11 191.89 100.86 191.14 98.87 C 190.91 98.19 190.45 96.84 190.22 96.16 C 192.14 95.80 194.07 95.45 196.00 95.09 C 196.00 91.67 196.00 88.24 195.97 84.81 C 196.41 84.71 197.29 84.51 197.73 84.40 C 197.80 87.95 197.81 91.51 197.96 95.06 C 203.36 94.99 208.70 95.72 214.08 96.10 C 214.71 90.75 214.68 85.32 214.10 79.96 C 212.48 80.39 210.85 81.30 209.14 80.88 C 205.20 80.01 203.46 74.26 206.60 71.53 Z" />
<path fill="#3a7f99" opacity="1.00" d=" M 183.90 98.05 C 183.99 95.36 183.45 92.50 184.77 90.02 C 185.30 101.00 184.84 112.00 185.02 122.99 C 184.91 125.67 185.51 128.55 184.15 131.00 C 183.59 120.03 184.08 109.03 183.90 98.05 Z" />
<path fill="#3a7f99" opacity="1.00" d=" M 222.03 97.90 C 235.12 100.11 247.18 106.39 257.90 114.04 C 265.45 118.59 271.27 125.34 277.33 131.63 C 282.52 136.80 285.76 143.43 289.63 149.56 C 291.57 152.63 293.22 155.88 294.40 159.32 C 292.86 159.89 291.33 160.46 289.80 161.03 C 284.85 150.37 278.87 139.92 270.20 131.82 C 257.53 117.57 240.21 108.00 222.04 102.65 C 221.99 101.07 221.99 99.48 222.03 97.90 Z" />
<path fill="#3a7f99" opacity="1.00" d=" M 167.98 100.19 C 170.29 99.69 172.56 98.85 174.95 98.83 C 176.48 99.57 176.91 101.27 177.34 102.76 C 174.76 103.54 172.19 104.36 169.64 105.21 C 169.07 103.54 168.50 101.88 167.98 100.19 Z" />
<path fill="#3a7f99" opacity="1.00" d=" M 152.30 107.09 C 156.17 104.96 160.08 102.63 164.49 101.84 C 164.96 103.35 165.44 104.86 165.94 106.36 C 152.75 112.53 139.67 119.85 129.98 130.96 C 122.35 137.63 117.24 146.45 111.90 154.92 C 110.47 154.19 109.05 153.46 107.62 152.73 C 109.38 148.71 112.09 145.23 114.44 141.55 C 119.58 132.89 127.22 126.15 134.32 119.16 C 140.05 114.77 146.11 110.80 152.30 107.09 Z" />
<path fill="#3a7f99" opacity="1.00" d=" M 140.81 141.99 C 140.10 140.21 139.72 137.70 142.12 137.05 C 145.02 136.67 145.08 140.06 144.28 141.97 C 143.41 141.98 141.68 141.99 140.81 141.99 Z" />
<path fill="#3a7f99" opacity="1.00" d=" M 258.48 137.60 C 259.84 136.28 262.22 137.51 262.38 139.27 C 262.77 141.00 260.72 142.50 259.11 141.86 C 257.16 141.43 256.88 138.58 258.48 137.60 Z" />
<path fill="#3a7f99" opacity="1.00" d=" M 168.23 150.41 C 179.06 147.30 189.20 142.16 199.99 138.95 C 210.91 142.31 221.21 147.44 232.19 150.65 C 247.78 156.46 263.16 162.87 278.92 168.19 C 272.84 170.46 266.75 172.68 260.71 175.05 C 262.01 177.52 263.05 180.16 263.08 183.00 C 263.24 194.08 263.60 205.16 263.58 216.24 C 264.50 216.78 265.43 217.32 266.36 217.85 C 266.87 220.91 267.26 224.22 265.43 226.95 C 266.48 227.76 268.60 228.14 268.30 229.92 C 268.43 238.73 268.42 247.55 268.42 256.37 C 267.53 256.18 265.75 255.80 264.85 255.61 C 262.91 257.21 260.35 257.18 258.49 255.45 C 257.78 255.79 256.36 256.46 255.65 256.79 C 254.08 253.41 254.76 249.62 254.64 246.02 C 254.78 240.66 254.31 235.30 254.46 229.94 C 254.17 228.38 255.81 227.65 256.67 226.69 C 255.80 224.63 254.63 222.43 255.35 220.13 C 255.80 218.07 257.82 217.09 259.41 216.03 C 259.24 205.71 259.16 195.38 259.08 185.05 C 259.19 179.86 256.39 174.31 251.23 172.61 C 237.44 168.46 223.27 165.79 209.49 161.62 C 207.98 159.33 206.16 156.91 203.29 156.36 C 197.78 154.81 191.81 160.13 192.54 165.76 C 193.09 169.46 196.07 172.46 199.59 173.53 C 202.64 174.90 205.52 171.19 208.55 172.57 C 215.01 174.95 221.07 178.29 227.54 180.63 C 229.70 181.60 231.80 180.09 233.75 179.31 C 224.71 175.50 215.67 171.69 206.66 167.83 C 204.67 169.02 202.56 170.77 200.07 170.11 C 197.57 169.24 195.59 166.74 196.18 163.99 C 196.17 161.27 198.90 160.22 200.88 159.10 C 203.38 159.82 205.61 161.17 206.75 163.62 C 216.28 166.82 226.07 169.20 235.67 172.22 C 241.60 174.13 248.05 174.56 253.58 177.63 C 247.20 180.16 240.72 182.44 234.14 184.41 C 224.17 187.92 214.33 191.81 204.35 195.32 C 202.43 195.88 200.43 197.20 198.41 196.33 C 188.14 192.81 178.07 188.74 167.82 185.17 C 151.92 180.12 136.50 173.74 120.82 168.08 C 136.82 162.76 152.38 156.17 168.23 150.41 M 185.54 149.69 C 168.98 154.97 153.19 162.41 136.63 167.66 C 146.92 172.39 157.84 175.67 168.34 179.94 C 170.39 181.29 170.58 178.33 171.28 177.16 C 163.63 173.69 155.39 171.69 147.81 168.11 L 148.27 167.42 C 156.18 164.65 164.02 161.67 171.82 158.58 C 181.24 155.48 190.17 150.91 199.87 148.70 C 207.99 150.46 215.50 154.12 223.28 156.91 C 232.19 160.15 240.90 163.91 249.91 166.84 C 252.25 167.55 254.22 169.03 256.12 170.53 C 258.60 169.91 261.03 169.09 263.38 168.07 C 253.98 164.80 244.75 161.08 235.42 157.64 C 223.71 152.76 211.54 149.16 199.79 144.42 C 195.07 146.25 190.34 148.10 185.54 149.69 M 174.15 181.98 C 175.47 182.39 176.77 182.80 178.09 183.22 C 178.55 182.14 179.02 181.07 179.49 180.01 C 178.34 179.49 177.18 178.97 176.03 178.45 C 175.40 179.63 174.78 180.80 174.15 181.98 M 183.07 184.57 C 184.16 184.98 185.25 185.39 186.35 185.81 C 186.62 185.04 187.16 183.51 187.43 182.75 C 186.26 182.34 185.09 181.93 183.92 181.52 C 183.63 182.54 183.35 183.55 183.07 184.57 M 192.39 183.92 C 191.83 185.18 191.27 186.45 190.72 187.72 C 191.93 188.10 193.14 188.48 194.35 188.86 C 194.96 187.81 195.58 186.76 196.20 185.72 C 194.93 185.11 193.66 184.51 192.39 183.92 Z" />
<path fill="#3a7f99" opacity="1.00" d=" M 104.87 166.79 C 105.58 165.17 105.90 162.93 108.00 162.63 C 104.46 171.68 101.73 181.14 100.97 190.86 C 112.97 191.02 124.98 190.92 136.99 190.91 C 139.53 190.99 142.29 190.47 144.57 191.92 C 130.07 192.93 115.52 192.20 101.00 192.43 C 100.78 195.90 100.72 199.38 101.01 202.84 C 112.17 203.12 123.33 202.74 134.49 203.04 C 133.71 204.88 131.54 204.30 130.00 204.49 C 120.36 204.41 110.71 204.56 101.06 204.38 C 100.49 210.85 102.37 217.13 103.62 223.41 C 103.90 224.50 103.75 225.55 103.18 226.55 C 101.18 219.46 99.46 212.16 100.06 204.74 C 93.03 204.41 85.87 204.15 78.89 204.78 C 77.23 207.42 74.55 210.53 71.04 209.28 C 66.89 208.55 65.99 203.72 66.97 200.26 C 68.78 199.07 70.62 197.45 72.97 197.87 C 76.10 197.70 77.80 200.71 79.30 202.95 C 85.82 202.80 92.35 203.15 98.86 202.83 C 100.83 201.27 99.94 198.35 100.10 196.17 C 99.18 186.13 101.71 176.22 104.87 166.79 Z" />
<path fill="#3a7f99" opacity="1.00" d=" M 291.71 165.20 C 293.17 164.69 294.65 164.19 296.12 163.69 C 297.10 166.03 297.97 168.41 298.68 170.85 C 296.83 170.59 294.99 170.33 293.15 170.05 C 292.67 168.43 292.17 166.82 291.71 165.20 Z" />
<path fill="#3a7f99" opacity="1.00" d=" M 274.23 184.78 C 272.60 184.04 273.50 181.16 275.10 181.12 C 276.76 180.55 277.79 182.25 278.97 183.06 C 277.87 184.35 275.93 186.65 274.23 184.78 Z" />
<path fill="#3a7f99" opacity="1.00" d=" M 296.05 180.54 C 297.49 180.84 299.14 180.60 300.42 181.41 C 301.40 184.24 301.51 187.27 301.80 190.23 C 309.38 190.39 316.97 190.50 324.55 190.16 C 325.64 187.38 328.16 184.41 331.47 185.17 C 335.70 185.90 337.66 191.63 334.88 194.84 C 333.32 197.52 329.44 197.75 327.13 195.97 C 325.83 194.87 325.26 193.20 324.46 191.75 C 316.99 191.47 309.51 191.41 302.03 191.66 C 302.06 195.18 302.08 198.70 302.09 202.22 C 313.22 202.27 324.35 202.45 335.47 202.07 C 336.42 198.20 341.19 195.76 344.58 198.34 C 349.27 200.71 347.14 208.71 342.02 208.85 C 338.74 209.50 336.39 206.82 335.33 204.06 C 324.29 204.11 313.25 203.70 302.22 204.05 C 301.83 207.34 301.45 210.64 301.15 213.94 C 305.70 214.31 310.32 214.56 314.87 214.01 C 316.65 212.68 316.71 209.65 319.11 208.99 C 322.56 207.45 326.79 210.40 327.05 214.04 C 327.57 218.05 322.79 221.61 319.08 219.99 C 317.08 219.28 316.62 216.80 314.90 215.76 C 310.23 215.27 305.52 215.66 300.85 215.55 C 299.45 230.23 293.46 244.17 285.43 256.40 C 280.19 265.78 272.13 273.11 264.39 280.38 C 256.76 285.73 249.05 291.20 240.42 294.85 C 239.64 293.43 238.84 292.03 238.07 290.61 C 249.66 285.53 260.70 278.61 269.13 269.06 C 273.52 265.09 277.33 260.54 280.66 255.65 C 288.65 243.58 294.41 229.96 296.69 215.62 C 291.11 215.53 285.53 215.55 279.95 215.61 C 278.44 215.54 276.62 215.90 275.64 214.44 C 282.67 214.02 289.71 214.42 296.74 214.18 C 297.16 210.83 297.52 207.47 297.92 204.11 C 289.13 202.82 280.28 204.46 271.47 203.85 C 271.70 203.50 272.16 202.80 272.39 202.45 C 280.87 201.99 289.40 202.60 297.89 202.23 C 297.87 198.88 298.08 195.50 297.54 192.17 C 296.28 191.15 294.50 191.65 293.01 191.47 C 285.34 191.54 277.68 191.42 270.01 191.57 C 270.02 191.27 270.03 190.69 270.04 190.39 C 279.16 190.39 288.28 190.48 297.41 190.35 C 297.07 187.06 296.63 183.79 296.05 180.54 Z" />
<path fill="#3a7f99" opacity="1.00" d=" M 80.36 190.81 C 81.03 187.91 83.10 185.82 85.94 184.98 C 88.13 185.98 90.78 186.85 91.66 189.37 C 93.54 193.49 89.29 198.35 85.03 197.62 C 82.37 197.16 81.44 194.36 79.82 192.60 C 75.09 192.23 70.34 192.56 65.60 192.51 C 64.46 195.89 60.83 198.97 57.16 197.30 C 52.47 195.78 51.85 188.49 56.23 186.23 C 58.64 184.41 61.44 185.80 63.73 187.03 C 64.30 188.25 64.83 189.49 65.54 190.64 C 70.43 191.34 75.43 190.85 80.36 190.81 Z" />
<path fill="#3a7f99" opacity="1.00" d=" M 149.94 206.71 C 149.44 199.02 151.09 191.31 154.70 184.50 C 161.76 187.15 168.81 189.82 175.85 192.51 C 173.44 198.54 171.89 204.88 171.69 211.39 C 164.38 210.18 157.06 208.86 149.94 206.71 Z" />
<path fill="#3a7f99" opacity="1.00" d=" M 223.99 192.62 C 231.14 189.99 238.24 187.25 245.39 184.64 C 248.49 191.48 250.51 198.92 249.93 206.48 C 242.84 208.76 235.51 210.15 228.16 211.32 C 227.49 204.93 226.19 198.65 223.99 192.62 Z" />
<path fill="#3a7f99" opacity="1.00" d=" M 180.20 194.02 C 186.07 196.24 191.91 198.56 197.93 200.38 C 197.88 204.76 197.89 209.14 197.87 213.53 C 190.69 213.16 183.52 212.66 176.34 212.17 C 176.47 205.92 178.04 199.84 180.20 194.02 Z" />
<path fill="#3a7f99" opacity="1.00" d=" M 202.08 200.43 C 207.97 198.63 213.77 196.52 219.45 194.15 C 221.74 199.87 223.11 205.93 222.91 212.11 C 216.00 212.71 209.07 213.08 202.15 213.51 C 202.13 209.15 202.11 204.79 202.08 200.43 Z" />
<path fill="#3a7f99" opacity="1.00" d=" M 84.28 210.08 C 87.17 209.35 90.86 209.96 92.05 213.08 C 94.25 216.46 90.89 221.43 86.98 221.13 C 83.78 221.79 81.63 218.72 80.95 216.01 C 81.17 213.70 82.31 211.37 84.28 210.08 Z" />
<path fill="#3a7f99" opacity="1.00" d=" M 109.87 211.83 C 111.39 209.40 114.50 210.00 116.92 209.82 C 118.21 211.45 119.42 213.15 120.55 214.90 C 127.38 214.98 134.22 214.92 141.05 214.96 L 141.09 216.48 C 134.23 216.50 127.38 216.46 120.53 216.51 C 118.90 218.67 117.24 221.85 113.98 221.14 C 109.26 221.49 106.86 215.13 109.87 211.83 Z" />
<path fill="#3a7f99" opacity="1.00" d=" M 149.92 211.63 C 157.12 213.54 164.42 214.95 171.72 216.37 C 172.12 228.08 177.87 238.85 185.57 247.41 C 188.62 250.32 192.24 252.54 195.68 254.95 C 187.95 254.40 180.66 251.48 173.72 248.23 C 160.92 240.47 150.96 226.84 149.92 211.63 Z" />
<path fill="#3a7f99" opacity="1.00" d=" M 228.02 216.41 C 235.41 214.88 242.87 213.63 250.12 211.46 C 248.66 219.03 246.32 226.60 241.77 232.92 C 237.12 239.11 231.89 245.22 224.84 248.73 C 218.16 251.75 211.22 254.59 203.81 254.96 C 208.35 251.86 213.19 248.92 216.50 244.42 C 219.56 240.28 222.42 235.94 224.46 231.20 C 226.48 226.51 227.18 221.41 228.02 216.41 Z" />
<path fill="#3a7f99" opacity="1.00" d=" M 176.34 216.60 C 183.51 217.28 190.70 217.62 197.88 218.22 C 197.71 229.15 197.95 240.08 197.75 251.00 C 185.26 244.21 177.76 230.48 176.34 216.60 Z" />
<path fill="#3a7f99" opacity="1.00" d=" M 202.17 217.91 C 209.11 217.90 216.02 217.04 222.95 216.64 C 221.88 230.38 214.23 243.86 202.13 250.77 C 202.19 239.82 202.13 228.87 202.17 217.91 Z" />
<path fill="#3a7f99" opacity="1.00" d=" M 103.66 237.25 C 105.12 236.74 106.58 236.23 108.04 235.73 C 113.53 247.58 119.80 259.48 129.50 268.47 C 141.13 281.33 156.78 290.23 173.24 295.32 C 172.84 296.92 172.39 298.51 171.97 300.11 C 163.35 297.28 154.71 294.08 147.17 288.94 C 142.17 285.61 136.78 282.76 132.52 278.46 C 126.03 272.26 119.31 266.02 114.79 258.17 C 110.40 251.60 106.12 244.82 103.66 237.25 Z" />
<path fill="#3a7f99" opacity="1.00" d=" M 138.32 242.24 C 139.80 242.23 141.29 242.24 142.78 242.25 C 142.68 243.66 142.59 245.07 142.48 246.48 C 141.19 246.46 139.90 246.43 138.62 246.40 C 138.51 245.01 138.41 243.63 138.32 242.24 Z" />
<path fill="#3a7f99" opacity="1.00" d=" M 238.32 264.73 C 238.05 263.23 237.71 260.37 240.03 260.58 C 242.29 260.20 242.58 262.83 242.78 264.44 C 241.31 264.97 239.74 265.96 238.32 264.73 Z" />
<path fill="#3a7f99" opacity="1.00" d=" M 186.56 261.57 C 187.30 262.58 187.58 263.75 187.47 265.00 C 187.36 276.09 187.42 287.19 187.52 298.29 C 191.22 298.60 194.94 298.72 198.66 298.83 C 198.77 287.88 198.55 276.92 198.75 265.98 C 198.98 265.48 199.43 264.49 199.66 264.00 C 200.03 275.57 199.72 287.16 199.89 298.74 C 203.55 298.71 207.22 298.57 210.87 298.29 C 211.43 286.53 210.91 274.74 211.16 262.98 C 211.38 262.61 211.82 261.88 212.04 261.52 C 212.44 273.66 212.09 285.83 212.33 297.99 C 216.34 297.45 220.26 296.45 224.28 295.95 C 224.53 297.33 224.78 298.72 225.04 300.11 C 220.79 300.87 216.58 301.76 212.34 302.55 C 212.30 306.92 212.28 311.28 212.31 315.65 C 213.60 316.07 214.90 316.49 216.20 316.90 C 216.90 319.43 216.89 322.07 216.58 324.66 C 214.30 326.45 210.91 327.71 208.34 325.75 C 205.90 324.19 205.68 320.89 206.59 318.40 C 207.35 316.74 209.33 316.32 210.77 315.46 C 210.98 311.19 210.91 306.91 210.88 302.64 C 207.29 302.75 203.70 302.89 200.11 302.99 C 200.08 303.69 200.02 305.10 199.99 305.81 C 203.59 306.42 206.78 310.30 205.06 313.92 C 204.51 316.43 201.78 316.82 199.80 317.69 C 197.41 316.92 194.34 315.89 194.34 312.84 C 193.54 309.51 196.14 307.19 198.68 305.65 C 198.66 305.04 198.63 303.82 198.62 303.22 C 194.96 302.89 191.28 302.74 187.61 302.68 C 187.61 306.77 187.31 310.89 187.75 314.97 C 189.11 316.04 190.71 316.79 192.00 317.94 C 193.22 320.13 193.15 323.41 191.16 325.14 C 189.54 326.90 186.86 327.01 184.71 326.39 C 180.51 323.81 181.03 316.49 186.20 315.43 C 186.32 311.17 186.27 306.91 186.35 302.66 C 184.95 302.42 183.55 302.19 182.15 301.96 C 182.40 300.65 182.65 299.35 182.91 298.05 C 183.74 298.06 185.41 298.08 186.24 298.09 C 186.55 285.92 186.05 273.73 186.56 261.57 Z" />
<path fill="#3a7f99" opacity="1.00" d=" M 162.57 267.45 C 163.89 267.10 165.22 266.75 166.55 266.42 C 166.49 268.03 167.13 269.88 166.18 271.33 C 164.89 271.78 163.75 270.84 162.60 270.44 C 162.59 269.44 162.58 268.45 162.57 267.45 Z" />
<path fill="#3a7f99" opacity="1.00" d=" M 216.37 273.22 C 217.67 273.39 219.25 272.79 220.36 273.69 C 220.50 274.91 220.46 276.15 220.47 277.38 C 219.17 277.45 217.87 277.52 216.58 277.58 C 216.50 276.13 216.43 274.67 216.37 273.22 Z" />
<path fill="#3a7f99" opacity="1.00" d=" M 228.91 294.41 C 230.64 293.76 232.37 293.09 234.10 292.44 C 234.79 293.86 235.48 295.29 236.17 296.73 C 234.13 297.49 232.09 298.23 230.04 298.93 C 229.65 297.42 229.28 295.92 228.91 294.41 Z" />
</g>
</svg>
